<svg xmlns="http://www.w3.org/2000/svg" xmlns:xlink="http://www.w3.org/1999/xlink" width="500" zoomAndPan="magnify" viewBox="0 0 375 253.499997" height="338" preserveAspectRatio="xMidYMid meet" version="1.0"><defs><g/></defs><g fill="#ff00ff" fill-opacity="1"><g transform="translate(4.460749, 182.760807)"><g><path d="M 52.140625 -79.203125 C 53.160156 -79.054688 54.539062 -80.875 56.28125 -84.65625 C 58.03125 -88.4375 64.578125 -98.910156 75.921875 -116.078125 C 87.421875 -133.242188 93.894531 -142.257812 95.34375 -143.125 C 98.976562 -145.601562 102.90625 -145.75 107.125 -143.5625 C 111.34375 -141.382812 113.453125 -138.1875 113.453125 -133.96875 C 111.710938 -128.4375 104.148438 -115.050781 90.765625 -93.8125 C 77.378906 -72.582031 70.179688 -61.238281 69.171875 -59.78125 L 60.21875 -43.421875 C 60.21875 -41.671875 60.507812 -36.359375 61.09375 -27.484375 C 61.675781 -18.617188 62.1875 -11.238281 62.625 -5.34375 C 63.0625 0.539062 63.566406 4.9375 64.140625 7.84375 C 64.722656 10.757812 63.195312 13.960938 59.5625 17.453125 C 55.925781 20.941406 52.363281 22.25 48.875 21.375 C 45.382812 20.21875 42.910156 17.894531 41.453125 14.40625 C 40.140625 10.90625 39.195312 3.050781 38.625 -9.15625 C 37.019531 -38.832031 31.707031 -63.707031 22.6875 -83.78125 C 13.664062 -103.851562 8.425781 -117.378906 6.96875 -124.359375 C 5.519531 -131.347656 7.050781 -136.003906 11.5625 -138.328125 C 16.070312 -140.660156 19.78125 -140.953125 22.6875 -139.203125 C 25.601562 -137.453125 28.515625 -132.648438 31.421875 -124.796875 C 34.035156 -116.941406 37.960938 -107.34375 43.203125 -96 C 48.441406 -84.65625 51.421875 -79.054688 52.140625 -79.203125 Z M 52.140625 -79.203125 "/></g></g></g><g fill="#ff00ff" fill-opacity="1"><g transform="translate(124.453915, 182.760807)"><g><path d="M 11.5625 -132.875 C 14.613281 -135.0625 17.007812 -136.15625 18.75 -136.15625 C 20.5 -136.15625 22.609375 -135.28125 25.078125 -133.53125 C 27.554688 -131.78125 29.085938 -129.742188 29.671875 -127.421875 C 30.253906 -125.097656 30.617188 -118.914062 30.765625 -108.875 C 30.910156 -98.84375 31.5625 -85.390625 32.71875 -68.515625 C 33.882812 -51.640625 35.34375 -39.785156 37.09375 -32.953125 C 73.457031 -31.929688 95.785156 -30.691406 104.078125 -29.234375 C 109.171875 -28.066406 112.003906 -24.71875 112.578125 -19.1875 C 113.160156 -13.664062 111.050781 -9.890625 106.25 -7.859375 C 102.90625 -6.398438 89.742188 -6.25 66.765625 -7.40625 C 43.785156 -8.570312 30.40625 -10.03125 26.625 -11.78125 C 19.925781 -15.125 15.410156 -21.882812 13.078125 -32.0625 C 10.753906 -42.25 9.015625 -62.253906 7.859375 -92.078125 L 6.546875 -129.390625 Z M 11.5625 -132.875 "/></g></g></g><g fill="#ff00ff" fill-opacity="1"><g transform="translate(243.574412, 182.760807)"><g><path d="M 65.671875 -3.046875 C 74.253906 -3.046875 82.328125 -7.921875 89.890625 -17.671875 C 94.253906 -22.765625 96.4375 -25.894531 96.4375 -27.0625 C 96.4375 -27.925781 91.78125 -28.359375 82.46875 -28.359375 C 73.164062 -28.359375 67.273438 -28.648438 64.796875 -29.234375 C 62.328125 -29.816406 60 -31.125 57.8125 -33.15625 C 55.632812 -35.195312 54.472656 -37.234375 54.328125 -39.265625 C 54.179688 -41.304688 54.976562 -43.632812 56.71875 -46.25 C 58.46875 -48.875 60.941406 -50.4375 64.140625 -50.9375 C 67.347656 -51.445312 75.640625 -51.738281 89.015625 -51.8125 C 102.398438 -51.882812 110.546875 -51.628906 113.453125 -51.046875 C 116.367188 -50.472656 119.570312 -48.507812 123.0625 -45.15625 C 126.550781 -41.8125 128.257812 -38.46875 128.1875 -35.125 C 128.113281 -31.78125 124.113281 -24.582031 116.1875 -13.53125 C 108.257812 -2.476562 101.675781 5.226562 96.4375 9.59375 C 91.195312 13.664062 86.394531 16.429688 82.03125 17.890625 C 77.675781 19.347656 72.003906 20.148438 65.015625 20.296875 C 50.035156 20.148438 36.875 14.1875 25.53125 2.40625 C 18.113281 -5.300781 13.09375 -13.375 10.46875 -21.8125 C 7.851562 -30.25 6.546875 -43.703125 6.546875 -62.171875 C 6.546875 -80.648438 8.800781 -95.5625 13.3125 -106.90625 C 17.820312 -118.257812 25.164062 -126.625 35.34375 -132 C 39.414062 -134.1875 42.90625 -135.425781 45.8125 -135.71875 C 48.726562 -136.007812 55.203125 -135.863281 65.234375 -135.28125 C 75.273438 -134.695312 83.054688 -133.675781 88.578125 -132.21875 C 94.109375 -130.476562 99.78125 -127.132812 105.59375 -122.1875 C 111.414062 -117.238281 115.816406 -112.144531 118.796875 -106.90625 C 121.785156 -101.675781 123.351562 -98.476562 123.5 -97.3125 C 123.644531 -96.144531 122.550781 -93.671875 120.21875 -89.890625 C 117.894531 -86.109375 114.695312 -84.507812 110.625 -85.09375 C 106.550781 -85.675781 102.84375 -88.65625 99.5 -94.03125 C 95.570312 -99.851562 92.003906 -103.78125 88.796875 -105.8125 C 85.597656 -107.851562 79.050781 -109.671875 69.15625 -111.265625 C 59.269531 -112.867188 52.4375 -113.09375 48.65625 -111.9375 C 42.539062 -110.039062 37.703125 -103.128906 34.140625 -91.203125 C 30.578125 -79.273438 29.085938 -66.253906 29.671875 -52.140625 C 30.253906 -38.035156 33.09375 -27.128906 38.1875 -19.421875 C 40.945312 -14.910156 45.085938 -11.050781 50.609375 -7.84375 C 56.140625 -4.644531 61.160156 -3.046875 65.671875 -3.046875 Z M 65.671875 -3.046875 "/></g></g></g><g fill="#00ffff" fill-opacity="1"><g transform="translate(-3.722556, 182.760807)"><g><path d="M 52.140625 -79.203125 C 53.160156 -79.054688 54.539062 -80.875 56.28125 -84.65625 C 58.03125 -88.4375 64.578125 -98.910156 75.921875 -116.078125 C 87.421875 -133.242188 93.894531 -142.257812 95.34375 -143.125 C 98.976562 -145.601562 102.90625 -145.75 107.125 -143.5625 C 111.34375 -141.382812 113.453125 -138.1875 113.453125 -133.96875 C 111.710938 -128.4375 104.148438 -115.050781 90.765625 -93.8125 C 77.378906 -72.582031 70.179688 -61.238281 69.171875 -59.78125 L 60.21875 -43.421875 C 60.21875 -41.671875 60.507812 -36.359375 61.09375 -27.484375 C 61.675781 -18.617188 62.1875 -11.238281 62.625 -5.34375 C 63.0625 0.539062 63.566406 4.9375 64.140625 7.84375 C 64.722656 10.757812 63.195312 13.960938 59.5625 17.453125 C 55.925781 20.941406 52.363281 22.25 48.875 21.375 C 45.382812 20.21875 42.910156 17.894531 41.453125 14.40625 C 40.140625 10.90625 39.195312 3.050781 38.625 -9.15625 C 37.019531 -38.832031 31.707031 -63.707031 22.6875 -83.78125 C 13.664062 -103.851562 8.425781 -117.378906 6.96875 -124.359375 C 5.519531 -131.347656 7.050781 -136.003906 11.5625 -138.328125 C 16.070312 -140.660156 19.78125 -140.953125 22.6875 -139.203125 C 25.601562 -137.453125 28.515625 -132.648438 31.421875 -124.796875 C 34.035156 -116.941406 37.960938 -107.34375 43.203125 -96 C 48.441406 -84.65625 51.421875 -79.054688 52.140625 -79.203125 Z M 52.140625 -79.203125 "/></g></g></g><g fill="#00ffff" fill-opacity="1"><g transform="translate(116.270609, 182.760807)"><g><path d="M 11.5625 -132.875 C 14.613281 -135.0625 17.007812 -136.15625 18.75 -136.15625 C 20.5 -136.15625 22.609375 -135.28125 25.078125 -133.53125 C 27.554688 -131.78125 29.085938 -129.742188 29.671875 -127.421875 C 30.253906 -125.097656 30.617188 -118.914062 30.765625 -108.875 C 30.910156 -98.84375 31.5625 -85.390625 32.71875 -68.515625 C 33.882812 -51.640625 35.34375 -39.785156 37.09375 -32.953125 C 73.457031 -31.929688 95.785156 -30.691406 104.078125 -29.234375 C 109.171875 -28.066406 112.003906 -24.71875 112.578125 -19.1875 C 113.160156 -13.664062 111.050781 -9.890625 106.25 -7.859375 C 102.90625 -6.398438 89.742188 -6.25 66.765625 -7.40625 C 43.785156 -8.570312 30.40625 -10.03125 26.625 -11.78125 C 19.925781 -15.125 15.410156 -21.882812 13.078125 -32.0625 C 10.753906 -42.25 9.015625 -62.253906 7.859375 -92.078125 L 6.546875 -129.390625 Z M 11.5625 -132.875 "/></g></g></g><g fill="#00ffff" fill-opacity="1"><g transform="translate(235.391107, 182.760807)"><g><path d="M 65.671875 -3.046875 C 74.253906 -3.046875 82.328125 -7.921875 89.890625 -17.671875 C 94.253906 -22.765625 96.4375 -25.894531 96.4375 -27.0625 C 96.4375 -27.925781 91.78125 -28.359375 82.46875 -28.359375 C 73.164062 -28.359375 67.273438 -28.648438 64.796875 -29.234375 C 62.328125 -29.816406 60 -31.125 57.8125 -33.15625 C 55.632812 -35.195312 54.472656 -37.234375 54.328125 -39.265625 C 54.179688 -41.304688 54.976562 -43.632812 56.71875 -46.25 C 58.46875 -48.875 60.941406 -50.4375 64.140625 -50.9375 C 67.347656 -51.445312 75.640625 -51.738281 89.015625 -51.8125 C 102.398438 -51.882812 110.546875 -51.628906 113.453125 -51.046875 C 116.367188 -50.472656 119.570312 -48.507812 123.0625 -45.15625 C 126.550781 -41.8125 128.257812 -38.46875 128.1875 -35.125 C 128.113281 -31.78125 124.113281 -24.582031 116.1875 -13.53125 C 108.257812 -2.476562 101.675781 5.226562 96.4375 9.59375 C 91.195312 13.664062 86.394531 16.429688 82.03125 17.890625 C 77.675781 19.347656 72.003906 20.148438 65.015625 20.296875 C 50.035156 20.148438 36.875 14.1875 25.53125 2.40625 C 18.113281 -5.300781 13.09375 -13.375 10.46875 -21.8125 C 7.851562 -30.25 6.546875 -43.703125 6.546875 -62.171875 C 6.546875 -80.648438 8.800781 -95.5625 13.3125 -106.90625 C 17.820312 -118.257812 25.164062 -126.625 35.34375 -132 C 39.414062 -134.1875 42.90625 -135.425781 45.8125 -135.71875 C 48.726562 -136.007812 55.203125 -135.863281 65.234375 -135.28125 C 75.273438 -134.695312 83.054688 -133.675781 88.578125 -132.21875 C 94.109375 -130.476562 99.78125 -127.132812 105.59375 -122.1875 C 111.414062 -117.238281 115.816406 -112.144531 118.796875 -106.90625 C 121.785156 -101.675781 123.351562 -98.476562 123.5 -97.3125 C 123.644531 -96.144531 122.550781 -93.671875 120.21875 -89.890625 C 117.894531 -86.109375 114.695312 -84.507812 110.625 -85.09375 C 106.550781 -85.675781 102.84375 -88.65625 99.5 -94.03125 C 95.570312 -99.851562 92.003906 -103.78125 88.796875 -105.8125 C 85.597656 -107.851562 79.050781 -109.671875 69.15625 -111.265625 C 59.269531 -112.867188 52.4375 -113.09375 48.65625 -111.9375 C 42.539062 -110.039062 37.703125 -103.128906 34.140625 -91.203125 C 30.578125 -79.273438 29.085938 -66.253906 29.671875 -52.140625 C 30.253906 -38.035156 33.09375 -27.128906 38.1875 -19.421875 C 40.945312 -14.910156 45.085938 -11.050781 50.609375 -7.84375 C 56.140625 -4.644531 61.160156 -3.046875 65.671875 -3.046875 Z M 65.671875 -3.046875 "/></g></g></g><g fill="#cb6ce6" fill-opacity="1"><g transform="translate(0.369096, 182.760807)"><g><path d="M 52.140625 -79.203125 C 53.160156 -79.054688 54.539062 -80.875 56.28125 -84.65625 C 58.03125 -88.4375 64.578125 -98.910156 75.921875 -116.078125 C 87.421875 -133.242188 93.894531 -142.257812 95.34375 -143.125 C 98.976562 -145.601562 102.90625 -145.75 107.125 -143.5625 C 111.34375 -141.382812 113.453125 -138.1875 113.453125 -133.96875 C 111.710938 -128.4375 104.148438 -115.050781 90.765625 -93.8125 C 77.378906 -72.582031 70.179688 -61.238281 69.171875 -59.78125 L 60.21875 -43.421875 C 60.21875 -41.671875 60.507812 -36.359375 61.09375 -27.484375 C 61.675781 -18.617188 62.1875 -11.238281 62.625 -5.34375 C 63.0625 0.539062 63.566406 4.9375 64.140625 7.84375 C 64.722656 10.757812 63.195312 13.960938 59.5625 17.453125 C 55.925781 20.941406 52.363281 22.25 48.875 21.375 C 45.382812 20.21875 42.910156 17.894531 41.453125 14.40625 C 40.140625 10.90625 39.195312 3.050781 38.625 -9.15625 C 37.019531 -38.832031 31.707031 -63.707031 22.6875 -83.78125 C 13.664062 -103.851562 8.425781 -117.378906 6.96875 -124.359375 C 5.519531 -131.347656 7.050781 -136.003906 11.5625 -138.328125 C 16.070312 -140.660156 19.78125 -140.953125 22.6875 -139.203125 C 25.601562 -137.453125 28.515625 -132.648438 31.421875 -124.796875 C 34.035156 -116.941406 37.960938 -107.34375 43.203125 -96 C 48.441406 -84.65625 51.421875 -79.054688 52.140625 -79.203125 Z M 52.140625 -79.203125 "/></g></g></g><g fill="#cb6ce6" fill-opacity="1"><g transform="translate(120.362262, 182.760807)"><g><path d="M 11.5625 -132.875 C 14.613281 -135.0625 17.007812 -136.15625 18.75 -136.15625 C 20.5 -136.15625 22.609375 -135.28125 25.078125 -133.53125 C 27.554688 -131.78125 29.085938 -129.742188 29.671875 -127.421875 C 30.253906 -125.097656 30.617188 -118.914062 30.765625 -108.875 C 30.910156 -98.84375 31.5625 -85.390625 32.71875 -68.515625 C 33.882812 -51.640625 35.34375 -39.785156 37.09375 -32.953125 C 73.457031 -31.929688 95.785156 -30.691406 104.078125 -29.234375 C 109.171875 -28.066406 112.003906 -24.71875 112.578125 -19.1875 C 113.160156 -13.664062 111.050781 -9.890625 106.25 -7.859375 C 102.90625 -6.398438 89.742188 -6.25 66.765625 -7.40625 C 43.785156 -8.570312 30.40625 -10.03125 26.625 -11.78125 C 19.925781 -15.125 15.410156 -21.882812 13.078125 -32.0625 C 10.753906 -42.25 9.015625 -62.253906 7.859375 -92.078125 L 6.546875 -129.390625 Z M 11.5625 -132.875 "/></g></g></g><g fill="#cb6ce6" fill-opacity="1"><g transform="translate(239.48276, 182.760807)"><g><path d="M 65.671875 -3.046875 C 74.253906 -3.046875 82.328125 -7.921875 89.890625 -17.671875 C 94.253906 -22.765625 96.4375 -25.894531 96.4375 -27.0625 C 96.4375 -27.925781 91.78125 -28.359375 82.46875 -28.359375 C 73.164062 -28.359375 67.273438 -28.648438 64.796875 -29.234375 C 62.328125 -29.816406 60 -31.125 57.8125 -33.15625 C 55.632812 -35.195312 54.472656 -37.234375 54.328125 -39.265625 C 54.179688 -41.304688 54.976562 -43.632812 56.71875 -46.25 C 58.46875 -48.875 60.941406 -50.4375 64.140625 -50.9375 C 67.347656 -51.445312 75.640625 -51.738281 89.015625 -51.8125 C 102.398438 -51.882812 110.546875 -51.628906 113.453125 -51.046875 C 116.367188 -50.472656 119.570312 -48.507812 123.0625 -45.15625 C 126.550781 -41.8125 128.257812 -38.46875 128.1875 -35.125 C 128.113281 -31.78125 124.113281 -24.582031 116.1875 -13.53125 C 108.257812 -2.476562 101.675781 5.226562 96.4375 9.59375 C 91.195312 13.664062 86.394531 16.429688 82.03125 17.890625 C 77.675781 19.347656 72.003906 20.148438 65.015625 20.296875 C 50.035156 20.148438 36.875 14.1875 25.53125 2.40625 C 18.113281 -5.300781 13.09375 -13.375 10.46875 -21.8125 C 7.851562 -30.25 6.546875 -43.703125 6.546875 -62.171875 C 6.546875 -80.648438 8.800781 -95.5625 13.3125 -106.90625 C 17.820312 -118.257812 25.164062 -126.625 35.34375 -132 C 39.414062 -134.1875 42.90625 -135.425781 45.8125 -135.71875 C 48.726562 -136.007812 55.203125 -135.863281 65.234375 -135.28125 C 75.273438 -134.695312 83.054688 -133.675781 88.578125 -132.21875 C 94.109375 -130.476562 99.78125 -127.132812 105.59375 -122.1875 C 111.414062 -117.238281 115.816406 -112.144531 118.796875 -106.90625 C 121.785156 -101.675781 123.351562 -98.476562 123.5 -97.3125 C 123.644531 -96.144531 122.550781 -93.671875 120.21875 -89.890625 C 117.894531 -86.109375 114.695312 -84.507812 110.625 -85.09375 C 106.550781 -85.675781 102.84375 -88.65625 99.5 -94.03125 C 95.570312 -99.851562 92.003906 -103.78125 88.796875 -105.8125 C 85.597656 -107.851562 79.050781 -109.671875 69.15625 -111.265625 C 59.269531 -112.867188 52.4375 -113.09375 48.65625 -111.9375 C 42.539062 -110.039062 37.703125 -103.128906 34.140625 -91.203125 C 30.578125 -79.273438 29.085938 -66.253906 29.671875 -52.140625 C 30.253906 -38.035156 33.09375 -27.128906 38.1875 -19.421875 C 40.945312 -14.910156 45.085938 -11.050781 50.609375 -7.84375 C 56.140625 -4.644531 61.160156 -3.046875 65.671875 -3.046875 Z M 65.671875 -3.046875 "/></g></g></g></svg>